<?xml version="1.0" standalone="no"?><!DOCTYPE svg PUBLIC "-//W3C//DTD SVG 1.1//EN" "http://www.w3.org/Graphics/SVG/1.1/DTD/svg11.dtd"><svg t="1671680153257" class="icon" viewBox="0 0 1024 1024" version="1.1" xmlns="http://www.w3.org/2000/svg" p-id="7053" xmlns:xlink="http://www.w3.org/1999/xlink" width="200" height="200"><path d="M618.069333 768l-72.064 130.432a42.666667 42.666667 0 0 1-72.874666 2.944L384.725333 768H213.333333a128 128 0 0 1-128-128V256a128 128 0 0 1 128-128h597.333334a128 128 0 0 1 128 128v384a128 128 0 0 1-128 128h-192.597334z" fill="#1afa29" opacity=".3" p-id="7054"></path><path d="M256 298.666667h384a42.666667 42.666667 0 0 1 0 85.333333H256a42.666667 42.666667 0 1 1 0-85.333333z m0 170.666666h213.333333a42.666667 42.666667 0 0 1 0 85.333334H256a42.666667 42.666667 0 0 1 0-85.333334z" fill="#1afa29" opacity=".3" p-id="7055"></path></svg>