<?xml version="1.0" standalone="no"?><!DOCTYPE svg PUBLIC "-//W3C//DTD SVG 1.1//EN" "http://www.w3.org/Graphics/SVG/1.1/DTD/svg11.dtd"><svg t="1671690363811" class="icon" viewBox="0 0 1024 1024" version="1.1" xmlns="http://www.w3.org/2000/svg" p-id="4206" xmlns:xlink="http://www.w3.org/1999/xlink" width="200" height="200"><path d="M672 544H352c-17.7 0-32-14.3-32-32s14.3-32 32-32h320c17.7 0 32 14.3 32 32s-14.3 32-32 32z" fill="#243154" p-id="4207"></path><path d="M512 704c-17.7 0-32-14.3-32-32V352c0-17.7 14.3-32 32-32s32 14.3 32 32v320c0 17.7-14.3 32-32 32z" fill="#243154" p-id="4208"></path><path d="M512 992C247.3 992 32 776.7 32 512S247.3 32 512 32s480 215.3 480 480-215.3 480-480 480z m0-896C282.6 96 96 282.6 96 512s186.6 416 416 416 416-186.6 416-416S741.4 96 512 96z" fill="#243154" p-id="4209"></path></svg>