<?xml version="1.0" standalone="no"?><!DOCTYPE svg PUBLIC "-//W3C//DTD SVG 1.1//EN" "http://www.w3.org/Graphics/SVG/1.1/DTD/svg11.dtd"><svg t="1671690184033" class="icon" viewBox="0 0 1024 1024" version="1.1" xmlns="http://www.w3.org/2000/svg" p-id="2301" xmlns:xlink="http://www.w3.org/1999/xlink" width="200" height="200"><path d="M614.613333 567.765333A159.36 159.36 0 0 0 576 672a159.573333 159.573333 0 0 0 51.2 117.333333H256a42.666667 42.666667 0 0 1-42.666667-42.666666v-60.693334a405.162667 405.162667 0 0 1 196.202667-118.250666A191.104 191.104 0 0 0 512 597.333333a191.104 191.104 0 0 0 102.464-29.610666l0.149333 0.042666zM512 213.333333a149.333333 149.333333 0 0 1 149.333333 149.333334v42.666666a149.333333 149.333333 0 0 1-298.666666 0v-42.666666a149.333333 149.333333 0 0 1 149.333333-149.333334z m213.333333 448h-32a10.666667 10.666667 0 1 0 0 21.333334H725.333333v32a10.666667 10.666667 0 1 0 21.333334 0V682.666667h32a10.666667 10.666667 0 1 0 0-21.333334H746.666667v-32a10.666667 10.666667 0 1 0-21.333334 0V661.333333z m10.666667 128a117.333333 117.333333 0 1 1 0-234.666666 117.333333 117.333333 0 0 1 0 234.666666z" fill="#2A2A37" p-id="2302"></path></svg>