<?xml version="1.0" standalone="no"?><!DOCTYPE svg PUBLIC "-//W3C//DTD SVG 1.1//EN" "http://www.w3.org/Graphics/SVG/1.1/DTD/svg11.dtd"><svg t="1671711514612" class="icon" viewBox="0 0 1024 1024" version="1.1" xmlns="http://www.w3.org/2000/svg" p-id="988" xmlns:xlink="http://www.w3.org/1999/xlink" width="200" height="200"><path d="M282.56 486.496l1.44 255.136a25.92 25.92 0 0 0 25.696 25.888h0.064l349.248-2.112a24.32 24.32 0 0 0 18.112-7.744 26.144 26.144 0 0 0 7.488-18.24l-1.504-255.264a25.984 25.984 0 0 0-25.888-25.76l-34.112 0.256-0.384-61.248c-0.512-77.76-63.36-140.864-141.248-140.864-77.504 0.384-140.128 64.512-139.616 142.496l0.384 61.12-34.24 0.256a25.824 25.824 0 0 0-25.44 26.112z m201.376-178.624c50.56 0 91.936 41.504 92.192 92.512l0.384 53.888-184.512 1.12-0.384-54.016a92.928 92.928 0 0 1 92.32-93.504z m157.824 191.392l1.12 224.736-314.496 1.888-1.376-224.64 314.752-2.016z m266.24 75.36l89.504-171.872-70.24-0.256C878.4 195.616 696.768 49.984 484.448 49.984h-2.624c-122.304 0.736-237.056 49.504-323.072 137.248S25.824 391.232 26.496 514.72a460.544 460.544 0 0 0 136 325.76c86.368 86.112 200.576 133.504 321.888 133.504h2.624c146.752-0.992 285.248-73.504 370.624-194.112l-34.112-24.128c-102.496 128.256-246.24 176.64-337.952 178.368-79.552 1.632-215.424-43.36-295.808-123.616-81.056-80.864-121.76-180.128-122.368-295.136-0.672-115.008 40.384-216.736 120.512-298.368 80.064-81.888 213.632-126.112 298.016-124.864 184 2.88 353.248 147.488 397.504 311.264h-89.632l114.24 171.264z" p-id="989"></path></svg>